<?xml version="1.0" encoding="UTF-8" standalone="no"?>
<!-- Created with Inkscape (http://www.inkscape.org/) -->

<svg
   xmlns:dc="http://purl.org/dc/elements/1.1/"
   xmlns:cc="http://creativecommons.org/ns#"
   xmlns:rdf="http://www.w3.org/1999/02/22-rdf-syntax-ns#"
   xmlns:svg="http://www.w3.org/2000/svg"
   xmlns="http://www.w3.org/2000/svg"
   xmlns:sodipodi="http://sodipodi.sourceforge.net/DTD/sodipodi-0.dtd"
   xmlns:inkscape="http://www.inkscape.org/namespaces/inkscape"
   width="200"
   height="200"
   viewBox="0 0 200 200"
   id="svg4200"
   version="1.1"
   inkscape:version="0.91 r13725"
   inkscape:export-filename="/home/sam/Documents/Projets/Logo Goutte/S/square_logo.png"
   inkscape:export-xdpi="90"
   inkscape:export-ydpi="90"
   sodipodi:docname="logo.svg">
  <defs
     id="defs4202">
    <clipPath
       clipPathUnits="userSpaceOnUse"
       id="clipPath16">
      <path
         d="M 0,792 612,792 612,0 0,0 0,792 Z"
         id="path18"
         inkscape:connector-curvature="0" />
    </clipPath>
  </defs>
  <sodipodi:namedview
     id="base"
     pagecolor="#ffffff"
     bordercolor="#666666"
     borderopacity="1.0"
     inkscape:pageopacity="0.0"
     inkscape:pageshadow="2"
     inkscape:zoom="0.98994949"
     inkscape:cx="207.48118"
     inkscape:cy="255.32895"
     inkscape:document-units="px"
     inkscape:current-layer="layer1"
     showgrid="false"
     units="px"
     inkscape:window-width="1920"
     inkscape:window-height="1028"
     inkscape:window-x="0"
     inkscape:window-y="0"
     inkscape:window-maximized="1" />
  <metadata
     id="metadata4205">
    <rdf:RDF>
      <cc:Work
         rdf:about="">
        <dc:format>image/svg+xml</dc:format>
        <dc:type
           rdf:resource="http://purl.org/dc/dcmitype/StillImage" />
        <dc:title></dc:title>
      </cc:Work>
    </rdf:RDF>
  </metadata>
  <g
     inkscape:label="Calque 1"
     inkscape:groupmode="layer"
     id="layer1"
     transform="translate(0,-852.36216)">
    <g
       transform="matrix(1.0894885,0,0,-1.0894885,-233.20524,1383.4969)"
       id="g12">
      <g
         id="g14"
         clip-path="url(#clipPath16)">
        <g
           id="g20"
           transform="translate(305.8369,320.0518)">
          <path
             d="m 0,0 c 2.925,0 5.78,0.3 8.538,0.87 2.417,0.81 4.479,1.875 6.174,3.204 4.337,3.402 6.505,8.277 6.505,14.626 0,3.063 -0.412,5.727 -1.234,7.994 -0.822,2.268 -2.267,4.352 -4.337,6.252 -2.069,1.898 -4.833,3.741 -8.292,5.527 -3.457,1.786 -7.822,3.727 -13.095,5.825 -5.045,1.984 -9.426,4.152 -13.138,6.506 -3.714,2.351 -6.776,5.002 -9.183,7.951 -2.411,2.947 -4.197,6.293 -5.358,10.034 -0.155,0.499 -0.299,1.009 -0.433,1.526 -4.799,-11.451 -8.142,-21.777 -8.142,-28.32 C -41.995,18.802 -23.193,0 0,0"
             style="fill:#231f20;fill-opacity:1;fill-rule:nonzero;stroke:none"
             id="path22"
             inkscape:connector-curvature="0" />
        </g>
        <g
           id="g24"
           transform="translate(305.8369,320.0518)">
          <path
             d="m 0,0 c 2.925,0 5.78,0.3 8.538,0.87 2.417,0.81 4.479,1.875 6.174,3.204 4.337,3.402 6.505,8.277 6.505,14.626 0,3.063 -0.412,5.727 -1.234,7.994 -0.822,2.268 -2.267,4.352 -4.337,6.252 -2.069,1.898 -4.833,3.741 -8.292,5.527 -3.457,1.786 -7.822,3.727 -13.095,5.825 -5.045,1.984 -9.426,4.152 -13.138,6.506 -3.714,2.351 -6.776,5.002 -9.183,7.951 -2.411,2.947 -4.197,6.293 -5.358,10.034 -0.155,0.499 -0.299,1.009 -0.433,1.526 -4.799,-11.451 -8.142,-21.777 -8.142,-28.32 C -41.995,18.802 -23.193,0 0,0 Z"
             style="fill:none;stroke:#231f20;stroke-width:1;stroke-linecap:butt;stroke-linejoin:miter;stroke-miterlimit:10;stroke-dasharray:none;stroke-opacity:1"
             id="path26"
             inkscape:connector-curvature="0" />
        </g>
        <g
           id="g28"
           transform="translate(327.8291,415.7349)">
          <path
             d="m 0,0 c -1.775,0.582 -3.632,1.128 -5.581,1.636 -4.676,1.219 -9.509,1.829 -14.498,1.829 -6.917,0 -12.275,-1.603 -16.072,-4.805 -3.799,-3.203 -5.698,-7.526 -5.698,-12.968 0,-3.232 0.426,-6.025 1.276,-8.377 0.85,-2.353 2.267,-4.48 4.252,-6.378 1.984,-1.899 4.605,-3.686 7.866,-5.357 3.259,-1.673 7.269,-3.444 12.032,-5.315 5.158,-2.041 9.68,-4.139 13.566,-6.293 3.881,-2.156 7.128,-4.592 9.735,-7.312 2.608,-2.723 4.578,-5.868 5.911,-9.44 1.197,-3.215 1.853,-6.963 1.973,-11.232 3.338,6.022 5.24,12.951 5.24,20.324 C 20.002,-42.458 10.157,-20.089 0,0"
             style="fill:#231f20;fill-opacity:1;fill-rule:nonzero;stroke:none"
             id="path30"
             inkscape:connector-curvature="0" />
        </g>
        <g
           id="g32"
           transform="translate(327.8291,415.7349)">
          <path
             d="m 0,0 c -1.775,0.582 -3.632,1.128 -5.581,1.636 -4.676,1.219 -9.509,1.829 -14.498,1.829 -6.917,0 -12.275,-1.603 -16.072,-4.805 -3.799,-3.203 -5.698,-7.526 -5.698,-12.968 0,-3.232 0.426,-6.025 1.276,-8.377 0.85,-2.353 2.267,-4.48 4.252,-6.378 1.984,-1.899 4.605,-3.686 7.866,-5.357 3.259,-1.673 7.269,-3.444 12.032,-5.315 5.158,-2.041 9.68,-4.139 13.566,-6.293 3.881,-2.156 7.128,-4.592 9.735,-7.312 2.608,-2.723 4.578,-5.868 5.911,-9.44 1.197,-3.215 1.853,-6.963 1.973,-11.232 3.338,6.022 5.24,12.951 5.24,20.324 C 20.002,-42.458 10.157,-20.089 0,0 Z"
             style="fill:none;stroke:#231f20;stroke-width:1;stroke-linecap:butt;stroke-linejoin:miter;stroke-miterlimit:10;stroke-dasharray:none;stroke-opacity:1"
             id="path34"
             inkscape:connector-curvature="0" />
        </g>
        <g
           id="g36"
           transform="translate(292.8262,431.0195)">
          <path
             d="m 0,0 c 4.562,1.417 9.595,2.126 15.094,2.126 3.946,0 7.651,-0.224 11.133,-0.661 -7.349,13.584 -13.216,23.464 -13.216,23.464 0,0 -6.412,-10.796 -14.225,-25.334 C -0.812,-0.267 -0.412,-0.128 0,0"
             style="fill:#231f20;fill-opacity:1;fill-rule:nonzero;stroke:none"
             id="path38"
             inkscape:connector-curvature="0" />
        </g>
        <g
           id="g40"
           transform="translate(292.8262,431.0195)">
          <path
             d="m 0,0 c 4.562,1.417 9.595,2.126 15.094,2.126 3.946,0 7.651,-0.224 11.133,-0.661 -7.349,13.584 -13.216,23.464 -13.216,23.464 0,0 -6.412,-10.796 -14.225,-25.334 C -0.812,-0.267 -0.412,-0.128 0,0 Z"
             style="fill:none;stroke:#231f20;stroke-width:1;stroke-linecap:butt;stroke-linejoin:miter;stroke-miterlimit:10;stroke-dasharray:none;stroke-opacity:1"
             id="path42"
             inkscape:connector-curvature="0" />
        </g>
        <g
           id="g44"
           transform="translate(305.8369,305.3535)">
          <path
             d="m 0,0 c -31.261,0 -56.693,25.433 -56.693,56.693 0,7.74 2.343,22.621 22.603,62.328 10.591,20.758 21.014,38.341 21.452,39.08 L 0,179.379 12.637,158.101 C 13.075,157.362 23.499,139.779 34.09,119.021 54.35,79.314 56.692,64.433 56.692,56.693 56.692,25.433 31.261,0 0,0 Z"
             style="fill:none;stroke:#231f20;stroke-width:2.83500004;stroke-linecap:butt;stroke-linejoin:miter;stroke-miterlimit:10;stroke-dasharray:none;stroke-opacity:1"
             id="path46"
             inkscape:connector-curvature="0" />
        </g>
      </g>
    </g>
  </g>
</svg>
