<svg version="1" xmlns="http://www.w3.org/2000/svg" width="933.333" height="933.333" viewBox="0 0 700.000000 700.000000"><path d="M348.7 1.7c-.3.5-1.6 2.8-3 5.3s-4.5 7.9-7 12c-5.3 8.7-21.5 36-23.7 39.9-.8 1.4-4.9 8.2-9 15.1s-8 13.4-8.6 14.5c-1.3 2.5-7.3 12.7-9.5 16.3-8.3 13.7-40.8 72.6-59.7 108.2-31.1 58.8-64.5 131.3-78.9 171.5-3.1 8.9-10.2 30.4-10.8 33-.2 1.1-1.3 5.4-2.4 9.5-9 33.2-9.8 63.1-2.7 98.5 2.2 10.8 8.3 29.4 13.7 41.7 11.2 25.5 26 47 46.3 67.4 12.7 12.6 20.9 19.3 35.1 28.8 17.7 11.8 46.7 24.9 64.5 29.1 8.5 2 20.7 4.6 23.7 5 12.9 1.7 17.4 1.9 32.3 2 14.4 0 32.4-1 34-2 .3-.1 2.8-.6 5.5-.9 6.6-.9 25-5.8 36.1-9.6 10.3-3.6 33.9-15.1 43.4-21.1 16.3-10.4 39.2-30.4 51.5-44.9 24.7-29.2 44.4-72 49.1-106.6.3-2.7.8-5.8 1-6.9.8-3.8 1.7-19 1.8-28 0-15.9-1.8-29.2-6.9-50.7-2.5-10.9-12.4-41.5-16.5-51.3-.4-1.1-1.8-4.7-3.1-8-6.5-17.2-17.5-42.8-27.5-64.3-2.4-5.2-4.4-9.6-4.4-9.9 0-.7-35.6-71.9-41.5-82.8-2.6-5-6.4-12.2-8.5-16-2.1-3.9-5.9-11.1-8.5-16-2.7-5-5.6-10.2-6.7-11.7-1-1.4-1.8-3.3-1.8-4.2 0-.9-.4-1.6-1-1.6-.5 0-1-.5-1-1 0-.6-3-6.3-6.6-12.8-16-28.2-31-54.3-36.5-63.4-3.2-5.4-5.9-10.3-5.9-10.8 0-.6-.4-1-.9-1s-1.2-.8-1.5-1.8c-.8-2.1-3.2-6.3-7.3-12.8-3.1-4.9-25.6-42.9-27.7-46.8-3-5.4-7.2-11.6-7.8-11.6-.4 0-.9.3-1.1.7zm4.7 25c1.5 2.7 3.6 6.3 4.7 8.2 1.1 1.9 10.6 17.9 21.1 35.5 23.3 39.2 43 73.4 56.3 98.1 2.1 3.8 4.5 8.3 5.5 10 1 1.6 3.6 6.5 5.9 10.7 2.2 4.3 5.8 11.1 8 15 14.9 27.9 40.1 78.4 52.6 105.3 21.6 46.5 41.1 97.8 47 123.5 1.8 8.1 4.6 22.7 5.1 27.5 1.4 11.4.7 38.6-1.1 48.4-.1.9-.6 3.6-1 6.1-.3 2.5-1.9 9.5-3.5 15.6-9.3 36.3-28 69.2-54.3 95.4-15.4 15.5-24.2 22.5-40.7 32.5-48.1 29.2-106.4 37.8-161.2 24-30-7.6-61.3-23.9-85.2-44.5-4.6-3.9-18.8-18.1-22.6-22.6-27.9-32.5-45.9-75-49.9-117.9-.8-9.6-.7-31.4.3-38 6.2-40.8 23.6-89.5 58.4-163.5 10.4-22.2 36.6-73.9 49.8-98 3.4-6.4 7.6-14.3 9.4-17.5 3.5-6.8 8.4-15.8 12.3-22.8 1.5-2.6 3.8-6.6 5-9 1.3-2.3 7.8-13.7 14.4-25.2 10.7-18.6 20.4-35.2 51.3-87.3 4.7-7.8 8.7-14.2 9.1-14.2.3 0 1.8 2.1 3.3 4.7z"/><path d="M348.3 119.7c-1.1 1.5-3.9 6.2-6.2 10.3-2.3 4.1-4.6 8.2-5.1 9-1.2 1.9-10.5 18.1-13.5 23.5-3.8 6.9-7.7 13.9-9.5 17-1 1.6-3.7 6.6-6.1 11-2.4 4.4-6.9 12.7-10 18.5-3.2 5.8-5.6 10.6-5.5 10.7.1.1 3.8-.9 8.1-2.3 19.4-6 34.5-7.9 61.5-7.8 16.9 0 23.3.4 37.2 2l4.7.6-12.6-22.9c-6.9-12.5-16.1-29.1-20.5-36.8-4.5-7.7-9.1-15.8-10.3-18-1.3-2.2-4.1-7.1-6.3-10.8l-3.9-6.9-2 2.9zM351.7 258.6c-.1.1-4 .4-8.7.8-25.8 1.9-47.7 13.1-59.7 30.6-2.6 3.9-4.3 7.4-8.4 17.8-1.5 3.9-2.3 12.2-2.2 23.2.3 36.9 15.7 57.9 57.7 78.3 13.5 6.7 19.5 9.3 45.1 19.7 28.1 11.5 56.8 26.6 68.5 36.1 8.2 6.7 17.9 16.5 22.9 23.3 13.3 17.7 20.6 40.9 21.2 66.9.1 3.1.5 5.7.9 5.7 1.5 0 11.9-22.6 15.3-33.5 3.4-10.7 5.1-17.8 6.5-28 1.1-8.2.7-34.6-.6-40.5-.7-3-1.4-6.5-1.7-7.7-.2-1.3-1.7-7.3-3.4-13.5-8.5-31.7-27.3-78.5-52.4-130.1-18.5-38.1-16.4-34.9-23.6-37.4-3.4-1.3-7.4-2.5-8.7-2.7-1.4-.3-4-1-5.7-1.5-4.1-1.4-17.1-4.1-22.2-4.7-2.2-.3-4.7-.7-5.5-.9-3.3-.9-34.4-2.6-35.3-1.9zM220.1 367.7c-2.3 5-11.3 27.7-13.8 34.8-1.3 3.8-2.8 7.9-3.3 9-3.5 8-11.1 35.9-13.4 49-1.6 9.2-1.4 34.6.3 44 2.9 15.4 5.6 24.4 11.6 38.5 9.6 22.4 27.7 46.1 47 61.7 28.3 22.8 65.5 35.8 102 35.6 20 0 31.6-2.2 44.2-8.4 13.9-6.7 24.1-16.5 30.1-28.9 5.7-11.7 7.5-19.9 7.6-35 .1-17.5-1.5-26-7.1-37.6-5.2-10.6-10.4-16.1-28.8-30.2-5.4-4.1-31.2-17.2-48-24.2-5.5-2.3-11.3-4.8-13-5.5-1.6-.7-7.7-3.2-13.5-5.6-20.9-8.6-39.9-18.9-54.5-29.7-8.1-6-23.2-21.5-28.2-28.8-7.1-10.5-15.3-28.7-16.8-37.7-.8-4.1-.9-4.2-2.4-1z"/></svg>